<svg width="1253" height="430" viewBox="0 0 1253 430" fill="none" xmlns="http://www.w3.org/2000/svg">
<path d="M0 0H1253V390C1253 390 984 291.5 806.5 390C629 488.5 428.5 380 302 327.5C175.5 275 0 390 0 390V0Z" fill="url(#paint0_linear_1_67)"/>
<path d="M176.25 270V160H193V204.5H208V160H224.75V270H208V218.875H193V270H176.25ZM257.25 270V160H294.125V174.438H274V206.438H293.125V220.562H274V255.562H294.875V270H257.25ZM334.5 270V226.062L316.062 160H332.062L342.938 201.125H343.188L352.875 160H368.812L351.25 226.062V270H334.5ZM389.125 291.125L393.5 270H385.688V253.25H403.688V269.438L397.312 291.125H389.125ZM472.5 270V160H489.25V270H472.5ZM525.625 203.438L531.5 176.625H521.938V159.062H543.75V176.062L535.25 203.438H525.625ZM574.75 270V160H595.562L611.188 240.375L625.875 160H646.812V270H631.875V229L632.5 191.375L617.688 269.5H604.375L588.938 191.375L589.562 229V270H574.75ZM738.188 271.25C730.979 271.25 725.354 269.104 721.312 264.812C717.312 260.479 715.312 254.104 715.312 245.688V226.062H731.5V244.875C731.5 247.042 731.625 249.042 731.875 250.875C732.167 252.708 732.75 254.167 733.625 255.25C734.5 256.333 735.854 256.875 737.688 256.875C739.521 256.875 740.875 256.354 741.75 255.312C742.625 254.229 743.208 252.729 743.5 250.812C743.792 248.854 743.938 246.542 743.938 243.875V160H760.688V243.062C760.688 252.104 758.688 259.062 754.688 263.938C750.729 268.812 745.229 271.25 738.188 271.25ZM816.625 271.25C810.917 271.25 806.25 270.042 802.625 267.625C799.042 265.208 796.396 261.625 794.688 256.875C792.979 252.125 792.125 246.25 792.125 239.25V188.938C792.125 182.604 792.958 177.188 794.625 172.688C796.292 168.188 798.938 164.729 802.562 162.312C806.188 159.896 810.938 158.688 816.812 158.688C821.229 158.688 824.958 159.375 828 160.75C831.042 162.125 833.5 164.125 835.375 166.75C837.25 169.333 838.604 172.5 839.438 176.25C840.312 179.958 840.75 184.188 840.75 188.938V239.25C840.75 246.25 839.917 252.125 838.25 256.875C836.625 261.625 834.042 265.208 830.5 267.625C826.958 270.042 822.333 271.25 816.625 271.25ZM816.625 256.75C818.708 256.75 820.271 256.125 821.312 254.875C822.354 253.625 823.042 251.729 823.375 249.188C823.75 246.604 823.938 243.354 823.938 239.438V188.188C823.938 183.396 823.479 179.708 822.562 177.125C821.688 174.5 819.771 173.188 816.812 173.188C813.771 173.188 811.708 174.458 810.625 177C809.542 179.5 809 183.208 809 188.125V239.438C809 243.438 809.167 246.729 809.5 249.312C809.875 251.854 810.604 253.729 811.688 254.938C812.812 256.146 814.458 256.75 816.625 256.75ZM872 270V160H888.75V204.5H903.75V160H920.5V270H903.75V218.875H888.75V270H872ZM953 270V160H966.125L989.438 226L988.25 196V160H1003.31V270H991.438L967.5 201.688L968.438 230.562V270H953Z" fill="black"/>
<defs>
<linearGradient id="paint0_linear_1_67" x1="0" y1="195" x2="1253" y2="195" gradientUnits="userSpaceOnUse">
<stop offset="0.213542" stop-color="#2179FE"/>
<stop offset="0.567708" stop-color="#175ABE"/>
<stop offset="1" stop-color="#0066FF" stop-opacity="0.11"/>
</linearGradient>
</defs>
</svg>
